# xmcd
#
# Track frame offsets: 
#        150
#        2889
#        19431
#        43463
#        63381
#        87524
#        112697
#        123603
#        137490
#        152579
#        173607
#        201457
#        216203
#        238399
#        255967
#        271150
#        297629
#
# Disc length: 4677 seconds
#
# Revision: 0
# Processed by: cddbd v1.5.2PL0 Copyright (c) Steve Scherf et al.
# Submitted via: ExactAudioCopy v1.0b3
#
DISCID=fe124311
DTITLE=Różni wykonawcy - Krakowskie Klimaty Bluesowe
DYEAR=2014
DGENRE=Blues
TTITLE0=Hey Now - Layconick Johnson and Salty Pretzel Brown
TTITLE1=You Don't Know My Mind - Kraków Street Band
TTITLE2=Preaching Blues - GRUFF!
TTITLE3=When The Summer's Gone  - The Missing Part
TTITLE4=Crawling King Snake - Space Sloth
TTITLE5=Howlin' - L'Orange Electrique
TTITLE6=Looking for a Friend - Nina Sawicka and Easy Money
TTITLE7=99 Year Blues - Willy Blake 
TTITLE8=Moanin' - Ewa Novel and Kraków Street Band 
TTITLE9=Ghost Riders - The Silver Owls
TTITLE10=Oaza - Cheap Tobacco
TTITLE11=Pallet On Your Floor - Limboski
TTITLE12=FeMiNi Blues - Levi
TTITLE13=Ślady - Little They Know
TTITLE14=Sugar Baby - Willy, Take Me Back
TTITLE15=No More - Hard Times
TTITLE16=Outside Help - Antoni Krupa i przyjaciele
EXTD=
EXTT0=
EXTT1=
EXTT2=
EXTT3=
EXTT4=
EXTT5=
EXTT6=
EXTT7=
EXTT8=
EXTT9=
EXTT10=
EXTT11=
EXTT12=
EXTT13=
EXTT14=
EXTT15=
EXTT16=
PLAYORDER=
